<svg width="14" height="14" viewBox="0 0 14 14" fill="none" xmlns="http://www.w3.org/2000/svg">
<path fill-rule="evenodd" clip-rule="evenodd" d="M6.99999 0.333328C3.31809 0.333328 0.333323 3.3181 0.333323 6.99999C0.327495 8.53942 0.860518 10.0324 1.83999 11.22L0.506657 12.5533C0.317494 12.745 0.262259 13.0317 0.366657 13.28C0.479902 13.5253 0.730027 13.678 0.99999 13.6667H6.99999C10.6819 13.6667 13.6667 10.6819 13.6667 6.99999C13.6667 3.3181 10.6819 0.333328 6.99999 0.333328ZM10.3333 4.99999C10.7015 4.99999 11 5.29847 11 5.66666C11 6.03485 10.7015 6.33333 10.3333 6.33333H3.66666C3.29847 6.33333 2.99999 6.03485 2.99999 5.66666C2.99999 5.29847 3.29847 4.99999 3.66666 4.99999H10.3333ZM3.66666 7.66666H7.66666C8.03485 7.66666 8.33332 7.96514 8.33332 8.33333C8.33332 8.70152 8.03485 9 7.66666 9H3.66666C3.29847 9 2.99999 8.70152 2.99999 8.33333C2.99999 7.96514 3.29847 7.66666 3.66666 7.66666ZM2.60666 12.3333H6.99999C9.54427 12.3313 11.7329 10.5324 12.2274 8.03667C12.722 5.54091 11.3847 3.04335 9.03347 2.07127C6.68221 1.09919 3.9717 1.92332 2.55947 4.03968C1.14725 6.15603 1.42658 8.97525 3.22666 10.7733C3.48514 11.0334 3.48514 11.4533 3.22666 11.7133L2.60666 12.3333Z" fill="#545B63"/>
</svg>
