<svg width="30" height="30" viewBox="0 0 30 30" fill="none" xmlns="http://www.w3.org/2000/svg">
<g clip-path="url(#clip0_2240_1886)">
<circle cx="15" cy="15" r="15" fill="#F2F2F2"/>
<path fill-rule="evenodd" clip-rule="evenodd" d="M20.9333 8.33334H9.06666C8.66165 8.33334 8.33333 8.66167 8.33333 9.06668V20.9333C8.33333 21.1278 8.41059 21.3144 8.54812 21.4519C8.68564 21.5894 8.87217 21.6667 9.06666 21.6667H15.4533V16.5H13.72V14.5H15.4533V13C15.3806 12.2872 15.6267 11.5786 16.1256 11.0643C16.6245 10.5499 17.3253 10.2824 18.04 10.3333C18.5589 10.3302 19.0775 10.3569 19.5933 10.4133V12.2133H18.5333C17.6933 12.2133 17.5333 12.6133 17.5333 13.1933V14.48H19.5333L19.2733 16.48H17.5333V21.6667H20.9333C21.1278 21.6667 21.3143 21.5894 21.4519 21.4519C21.5894 21.3144 21.6667 21.1278 21.6667 20.9333V9.06668C21.6667 8.87218 21.5894 8.68566 21.4519 8.54813C21.3143 8.41061 21.1278 8.33334 20.9333 8.33334Z" fill="#3B5998"/>
</g>
<defs>
<clipPath id="clip0_2240_1886">
<rect width="30" height="30" fill="white"/>
</clipPath>
</defs>
</svg>
