<svg width="16" height="21" viewBox="0 0 16 21" fill="none" xmlns="http://www.w3.org/2000/svg">
<path fill-rule="evenodd" clip-rule="evenodd" d="M0 2.51519C0 1.31021 0.976833 0.333374 2.18182 0.333374H13.8182C15.0232 0.333374 16 1.31021 16 2.51519V18.5152C16 19.7202 15.0232 20.697 13.8182 20.697H2.18182C0.976834 20.697 0 19.7202 0 18.5152V2.51519ZM2.18182 1.78792C1.78016 1.78792 1.45455 2.11353 1.45455 2.51519V18.5152C1.45455 18.9168 1.78016 19.2425 2.18182 19.2425H13.8182C14.2198 19.2425 14.5455 18.9168 14.5455 18.5152V2.51519C14.5455 2.11353 14.2198 1.78792 13.8182 1.78792H2.18182Z" fill="#00A981"/>
<path d="M5.81851 4.69686C5.81851 5.50018 5.16729 6.1514 4.36397 6.1514C3.56065 6.1514 2.90942 5.50018 2.90942 4.69686C2.90942 3.89353 3.56065 3.24231 4.36397 3.24231C5.16729 3.24231 5.81851 3.89353 5.81851 4.69686Z" fill="#00A981"/>
<path fill-rule="evenodd" clip-rule="evenodd" d="M7.27246 4.69712C7.27246 4.29546 7.59807 3.96985 7.99973 3.96985L12.3634 3.96985C12.765 3.96985 13.0906 4.29546 13.0906 4.69712C13.0906 5.09878 12.765 5.42439 12.3634 5.42439L7.99973 5.42439C7.59807 5.42439 7.27246 5.09878 7.27246 4.69712Z" fill="#00A981"/>
<path d="M2.90942 8.33372C2.90942 7.93206 3.23503 7.60645 3.6367 7.60645H12.364C12.7656 7.60645 13.0912 7.93206 13.0912 8.33372V10.5155C13.0912 10.9172 12.7656 11.2428 12.364 11.2428H3.6367C3.23503 11.2428 2.90942 10.9172 2.90942 10.5155V8.33372Z" fill="#00A981"/>
<path d="M2.90942 13.4241C2.90942 13.0224 3.23503 12.6968 3.6367 12.6968H12.364C12.7656 12.6968 13.0912 13.0224 13.0912 13.4241V17.0604C13.0912 17.4621 12.7656 17.7877 12.364 17.7877H3.6367C3.23503 17.7877 2.90942 17.4621 2.90942 17.0604V13.4241Z" fill="#00A981"/>
</svg>
