<svg width="18" height="19" viewBox="0 0 18 19" fill="none" xmlns="http://www.w3.org/2000/svg">
<path fill-rule="evenodd" clip-rule="evenodd" d="M15.2222 0.995609C15.8687 0.998259 16.5139 1.05475 17.1511 1.1645C17.5628 1.23507 17.8698 1.58278 17.8889 2.00005V12.6667C17.8927 12.9311 17.7786 13.1836 17.5776 13.3554C17.3766 13.5272 17.1095 13.6006 16.8489 13.5556C14.2622 13.1379 11.6166 13.7857 9.51555 15.3512L9.40888 15.4134H9.3111C9.11199 15.4964 8.88799 15.4964 8.68888 15.4134H8.5911L8.48444 15.3512C6.36871 13.82 3.72446 13.2078 1.1511 13.6534C0.8905 13.6984 0.6234 13.625 0.422367 13.4532C0.221335 13.2813 0.107248 13.0289 0.111102 12.7645V2.09783C0.104741 1.66034 0.417701 1.28328 0.84888 1.20894C1.48604 1.09919 2.13123 1.0427 2.77777 1.04005C4.97924 1.02497 7.13879 1.64199 8.99999 2.81783C10.8564 1.62634 13.0163 0.993801 15.2222 0.995609ZM2.77777 11.6623C4.63601 11.6611 6.46655 12.1127 8.1111 12.9778V4.37339C6.52907 3.32778 4.67411 2.77129 2.77777 2.77339C2.48172 2.75633 2.18493 2.75633 1.88888 2.77339V11.6623H2.77777ZM16.1111 11.6978H15.2222C13.364 11.6967 11.5334 12.1482 9.88888 13.0134V4.37339C11.4709 3.32778 13.3259 2.77129 15.2222 2.77339C15.5183 2.75633 15.8151 2.75633 16.1111 2.77339V11.6978ZM15.2222 15.2178C15.8688 15.2205 16.5139 15.277 17.1511 15.3867C17.3848 15.4238 17.5941 15.5525 17.7326 15.7444C17.871 15.9363 17.9273 16.1755 17.8889 16.4089C17.7948 16.8895 17.3298 17.2035 16.8489 17.1112C14.2755 16.6656 11.6313 17.2778 9.51555 18.8089C9.20696 19.0287 8.79303 19.0287 8.48444 18.8089C6.36871 17.2778 3.72446 16.6656 1.1511 17.1112C0.670186 17.2035 0.20515 16.8895 0.111102 16.4089C0.0726837 16.1755 0.128947 15.9363 0.267428 15.7444C0.405909 15.5525 0.615178 15.4238 0.84888 15.3867C1.48604 15.277 2.13123 15.2205 2.77777 15.2178C4.98367 15.216 7.14356 15.8486 8.99999 17.0401C10.8564 15.8486 13.0163 15.216 15.2222 15.2178Z" fill="#A5B1C2"/>
</svg>
