<svg width="16" height="16" viewBox="0 0 16 16" fill="none" xmlns="http://www.w3.org/2000/svg">
<path d="M14.0362 10.089H14.1187C14.4275 10.089 14.7236 9.96858 14.9419 9.75423C15.1603 9.53988 15.2829 9.24915 15.2829 8.94601C15.2829 8.64286 15.1603 8.35214 14.9419 8.13778C14.7236 7.92343 14.4275 7.80301 14.1187 7.80301H12.9546C13.2513 7.78474 13.5298 7.65613 13.7333 7.44336C13.9369 7.23059 14.0502 6.94966 14.0502 6.65776C14.0502 6.36585 13.9369 6.08492 13.7333 5.87215C13.5298 5.65939 13.2513 5.53078 12.9546 5.51251H10.1496C10.4154 4.86451 10.7546 3.84301 11.0662 2.87101C11.2122 2.39541 11.1606 1.88245 10.9227 1.44406C10.6849 1.00567 10.2801 0.677442 9.79666 0.531006C9.73408 0.511591 9.66819 0.504589 9.60283 0.510409C9.53746 0.516228 9.47393 0.534751 9.41592 0.564902C9.35792 0.595052 9.3066 0.636227 9.26495 0.686031C9.2233 0.735836 9.19216 0.793274 9.17333 0.855006C8.77916 2.17801 8.48583 3.84751 6.42333 5.35501C5.70823 5.90391 5.089 6.56355 4.59 7.30801C4.42411 7.53986 4.20481 7.72998 3.94995 7.86291C3.69509 7.99585 3.41187 8.06783 3.12333 8.07301H1.48708C1.36552 8.07301 1.24894 8.12042 1.16299 8.20481C1.07704 8.2892 1.02875 8.40366 1.02875 8.52301V13.527C1.02875 13.6464 1.07704 13.7608 1.16299 13.8452C1.24894 13.9296 1.36552 13.977 1.48708 13.977H2.62833C4.13166 14.013 4.7825 14.5665 6.65708 14.5665H12.8308C13.1043 14.5665 13.3666 14.4598 13.56 14.27C13.7534 14.0801 13.8621 13.8225 13.8621 13.554C13.8621 13.2855 13.7534 13.0279 13.56 12.8381C13.3666 12.6482 13.1043 12.5415 12.8308 12.5415H14.0362C14.3544 12.5226 14.6532 12.3851 14.8717 12.1573C15.0902 11.9294 15.2118 11.6282 15.2118 11.3153C15.2118 11.0023 15.0902 10.7011 14.8717 10.4733C14.6532 10.2454 14.3544 10.1079 14.0362 10.089V10.089Z" stroke="#545B63" stroke-linecap="round" stroke-linejoin="round"/>
</svg>
