<svg width="18" height="18" viewBox="0 0 18 18" fill="none" xmlns="http://www.w3.org/2000/svg">
<path fill-rule="evenodd" clip-rule="evenodd" d="M15.2222 5.44442H14.3333V2.77775C14.3333 1.30499 13.1394 0.111084 11.6666 0.111084H2.77775C1.30499 0.111084 0.111084 1.30499 0.111084 2.77775V13.4444C0.112875 13.8033 0.330261 14.1258 0.662195 14.2622C0.767688 14.312 0.883371 14.3363 0.999973 14.3333C1.23624 14.3347 1.46333 14.2419 1.63108 14.0755L4.12886 11.5689H5.44442V12.8489C5.44442 14.3216 6.63832 15.5155 8.11108 15.5155H14.2622L16.3689 17.6311C16.5366 17.7975 16.7637 17.8902 17 17.8889C17.1166 17.8919 17.2323 17.8675 17.3377 17.8178C17.6697 17.6814 17.8871 17.3588 17.8889 17V8.11108C17.8889 6.63832 16.695 5.44442 15.2222 5.44442ZM5.44442 8.11108V9.79108H3.76442C3.52815 9.78972 3.30106 9.88247 3.13331 10.0489L1.88886 11.3022V2.77775C1.88886 2.28683 2.28683 1.88886 2.77775 1.88886H11.6666C12.1576 1.88886 12.5555 2.28683 12.5555 2.77775V5.44442H8.11108C6.63832 5.44442 5.44442 6.63832 5.44442 8.11108ZM15.2222 13.9689L16.1111 14.8578V8.11108C16.1111 7.62016 15.7131 7.2222 15.2222 7.2222H8.11108C7.62016 7.2222 7.2222 7.62016 7.2222 8.11108V12.8133C7.2222 13.3042 7.62016 13.7022 8.11108 13.7022H14.5911C14.8286 13.7032 15.0559 13.7992 15.2222 13.9689Z" fill="#A5B1C2"/>
</svg>
