<svg width="16" height="18" viewBox="0 0 16 18" fill="none" xmlns="http://www.w3.org/2000/svg">
<path fill-rule="evenodd" clip-rule="evenodd" d="M13.3334 7.2222V10.0489C14.3962 10.4246 15.108 11.4282 15.1111 12.5555V14.3333C15.1111 14.8242 14.7132 15.2222 14.2222 15.2222H11.4311C11.0103 16.7706 9.6046 17.8453 8.00003 17.8453C6.39546 17.8453 4.98971 16.7706 4.56892 15.2222H1.7778C1.28689 15.2222 0.888916 14.8242 0.888916 14.3333V12.5555C0.892084 11.4282 1.60382 10.4246 2.66669 10.0489V7.2222C2.66933 4.62173 4.54705 2.40227 7.11114 1.96886V0.999973C7.11114 0.509053 7.50911 0.111084 8.00003 0.111084C8.49095 0.111084 8.88892 0.509053 8.88892 0.999973V1.96886C11.453 2.40227 13.3307 4.62173 13.3334 7.2222ZM8.00003 3.66664C6.03635 3.66664 4.44447 5.25852 4.44447 7.2222V9.88886H11.5556V7.2222C11.5556 5.25852 9.96371 3.66664 8.00003 3.66664ZM8.00003 16.1111C7.36872 16.1073 6.78679 15.7689 6.47114 15.2222H9.52892C9.21327 15.7689 8.63134 16.1073 8.00003 16.1111ZM2.66669 13.4444H13.3334V12.5555C13.3334 12.0646 12.9354 11.6666 12.4445 11.6666H3.55558C3.06466 11.6666 2.66669 12.0646 2.66669 12.5555V13.4444Z" fill="#545B63"/>
</svg>
