<svg width="30" height="30" viewBox="0 0 30 30" fill="none" xmlns="http://www.w3.org/2000/svg">
<g clip-path="url(#clip0_2240_1903)">
<circle cx="15" cy="15" r="15" fill="#E4F7F5"/>
<path fill-rule="evenodd" clip-rule="evenodd" d="M9 8.63636C9 7.73262 9.73263 7 10.6364 7H19.3636C20.2674 7 21 7.73262 21 8.63636V20.6364C21 21.5401 20.2674 22.2727 19.3636 22.2727H10.6364C9.73263 22.2727 9 21.5401 9 20.6364V8.63636ZM10.6364 8.09091C10.3351 8.09091 10.0909 8.33512 10.0909 8.63636V20.6364C10.0909 20.9376 10.3351 21.1818 10.6364 21.1818H19.3636C19.6649 21.1818 19.9091 20.9376 19.9091 20.6364V8.63636C19.9091 8.33512 19.6649 8.09091 19.3636 8.09091H10.6364Z" fill="#00A981"/>
<path d="M13.3639 10.2726C13.3639 10.8751 12.8755 11.3635 12.273 11.3635C11.6705 11.3635 11.1821 10.8751 11.1821 10.2726C11.1821 9.67013 11.6705 9.18172 12.273 9.18172C12.8755 9.18172 13.3639 9.67013 13.3639 10.2726Z" fill="#00A981"/>
<path fill-rule="evenodd" clip-rule="evenodd" d="M14.4544 10.2729C14.4544 9.97161 14.6986 9.7274 14.9998 9.7274L18.2725 9.7274C18.5738 9.7274 18.818 9.97161 18.818 10.2729C18.818 10.5741 18.5738 10.8183 18.2725 10.8183L14.9998 10.8183C14.6986 10.8183 14.4544 10.5741 14.4544 10.2729Z" fill="#00A981"/>
<path d="M11.1821 13.0002C11.1821 12.699 11.4263 12.4548 11.7275 12.4548H18.273C18.5742 12.4548 18.8184 12.699 18.8184 13.0002V14.6366C18.8184 14.9379 18.5742 15.1821 18.273 15.1821H11.7275C11.4263 15.1821 11.1821 14.9379 11.1821 14.6366V13.0002Z" fill="#00A981"/>
<path d="M11.1821 16.818C11.1821 16.5168 11.4263 16.2726 11.7275 16.2726H18.273C18.5742 16.2726 18.8184 16.5168 18.8184 16.818V19.5453C18.8184 19.8465 18.5742 20.0908 18.273 20.0908H11.7275C11.4263 20.0908 11.1821 19.8465 11.1821 19.5453V16.818Z" fill="#00A981"/>
</g>
<defs>
<clipPath id="clip0_2240_1903">
<rect width="30" height="30" fill="white"/>
</clipPath>
</defs>
</svg>
