<svg width="18" height="18" viewBox="0 0 18 18" fill="none" xmlns="http://www.w3.org/2000/svg">
<path fill-rule="evenodd" clip-rule="evenodd" d="M15.2222 3.66664H13.4444V2.77775C13.4444 1.30499 12.2505 0.111084 10.7778 0.111084H7.22219C5.74944 0.111084 4.55553 1.30499 4.55553 2.77775V3.66664H2.77775C1.30499 3.66664 0.111084 4.86055 0.111084 6.33331V15.2222C0.111084 16.695 1.30499 17.8889 2.77775 17.8889H15.2222C16.695 17.8889 17.8889 16.695 17.8889 15.2222V6.33331C17.8889 4.86055 16.695 3.66664 15.2222 3.66664ZM7.22219 13.4444H8.11108V14.3333C8.11108 14.8242 8.50905 15.2222 8.99997 15.2222C9.49089 15.2222 9.88886 14.8242 9.88886 14.3333V13.4444H10.7778C11.2687 13.4444 11.6666 13.0464 11.6666 12.5555C11.6666 12.0646 11.2687 11.6666 10.7778 11.6666H9.88886V10.7778C9.88886 10.2868 9.49089 9.88886 8.99997 9.88886C8.50905 9.88886 8.11108 10.2868 8.11108 10.7778V11.6666H7.22219C6.73128 11.6666 6.33331 12.0646 6.33331 12.5555C6.33331 13.0464 6.73128 13.4444 7.22219 13.4444ZM7.22219 1.88886C6.73128 1.88886 6.33331 2.28683 6.33331 2.77775V3.66664H11.6666V2.77775C11.6666 2.28683 11.2687 1.88886 10.7778 1.88886H7.22219ZM16.1111 15.2222C16.1111 15.7131 15.7131 16.1111 15.2222 16.1111H2.77775C2.28683 16.1111 1.88886 15.7131 1.88886 15.2222V8.99997H16.1111V15.2222ZM1.88886 7.2222H16.1111V6.33331C16.1111 5.84239 15.7131 5.44442 15.2222 5.44442H2.77775C2.28683 5.44442 1.88886 5.84239 1.88886 6.33331V7.2222Z" fill="#A5B1C2"/>
</svg>
