<svg width="30" height="30" viewBox="0 0 30 30" fill="none" xmlns="http://www.w3.org/2000/svg">
<g clip-path="url(#clip0_2240_1921)">
<circle cx="15" cy="15" r="15" fill="#E4F7F5"/>
<path fill-rule="evenodd" clip-rule="evenodd" d="M11.2267 8.54667L20.56 13.2133H20.5667C21.2418 13.553 21.6679 14.2442 21.6679 15C21.6679 15.7558 21.2418 16.447 20.5667 16.7867L11.2333 21.4533C10.953 21.5907 10.6455 21.6636 10.3333 21.6667C9.6562 21.6665 9.02514 21.3237 8.65639 20.7558C8.28764 20.1879 8.2313 19.4719 8.50667 18.8533L10.1067 15.2733C10.18 15.0985 10.18 14.9015 10.1067 14.7267L8.50667 11.1467C8.16548 10.3759 8.34421 9.47387 8.95356 8.89141C9.5629 8.30895 10.472 8.17107 11.2267 8.54667ZM10.6333 20.26L19.9667 15.5933C20.1893 15.4793 20.3294 15.2502 20.3294 15C20.3294 14.7498 20.1893 14.5207 19.9667 14.4067L10.6333 9.74C10.3823 9.61949 10.0829 9.66764 9.88234 9.86077C9.68179 10.0539 9.62238 10.3513 9.73334 10.6067L11.3267 14.1867C11.3473 14.2345 11.3651 14.2834 11.38 14.3333H15.9733C16.3415 14.3333 16.64 14.6318 16.64 15C16.64 15.3682 16.3415 15.6667 15.9733 15.6667H11.38C11.3651 15.7166 11.3473 15.7655 11.3267 15.8133L9.73334 19.3933C9.62238 19.6487 9.68179 19.9461 9.88234 20.1392C10.0829 20.3324 10.3823 20.3805 10.6333 20.26Z" fill="#00A981"/>
</g>
<defs>
<clipPath id="clip0_2240_1921">
<rect width="30" height="30" fill="white"/>
</clipPath>
</defs>
</svg>
