<svg width="30" height="30" viewBox="0 0 30 30" fill="none" xmlns="http://www.w3.org/2000/svg">
<g clip-path="url(#clip0_2240_1867)">
<circle cx="15" cy="15" r="15" fill="#F2F2F2"/>
<path fill-rule="evenodd" clip-rule="evenodd" d="M21.6 10.5067C21.6369 10.792 21.6592 11.0791 21.6667 11.3667V11.72V18.28V18.64C21.6602 18.9257 21.6357 19.2107 21.5933 19.4933C21.5457 19.743 21.465 19.9851 21.3533 20.2133C21.2316 20.4591 21.0719 20.6841 20.88 20.88C20.686 21.0742 20.4606 21.2342 20.2133 21.3533C19.9854 21.4673 19.7432 21.5502 19.4933 21.6C19.208 21.6369 18.9209 21.6592 18.6333 21.6667H11.36C11.0743 21.6602 10.7893 21.6357 10.5067 21.5933C10.257 21.5458 10.0149 21.465 9.78666 21.3533C9.54092 21.2316 9.31594 21.0719 9.11999 20.88C8.92584 20.686 8.76582 20.4606 8.64666 20.2133C8.53273 19.9854 8.44977 19.7433 8.39999 19.4933C8.36307 19.208 8.34082 18.921 8.33333 18.6333V18.28V11.72V11.36C8.33983 11.0743 8.36433 10.7893 8.40666 10.5067C8.45424 10.2571 8.53496 10.0149 8.64666 9.78668C8.76839 9.54094 8.92813 9.31595 9.11999 9.12001C9.31401 8.92586 9.5394 8.76583 9.78666 8.64668C10.0146 8.53275 10.2567 8.44979 10.5067 8.40001C10.792 8.36309 11.079 8.34083 11.3667 8.33334H18.64C18.9257 8.33985 19.2107 8.36434 19.4933 8.40668C19.7429 8.45426 19.9851 8.53497 20.2133 8.64668C20.4591 8.7684 20.6841 8.92815 20.88 9.12001C21.0741 9.31403 21.2342 9.53941 21.3533 9.78668C21.4673 10.0146 21.5502 10.2568 21.6 10.5067ZM12.8667 19.0667C13.5661 19.4563 14.3527 19.6627 15.1533 19.6667C17.7908 19.6483 19.9164 17.4999 19.9066 14.8624C19.8968 12.2249 17.7553 10.0923 15.1178 10.0935C12.4803 10.0946 10.3407 12.2292 10.3333 14.8667C10.34 15.7073 10.5701 16.531 11 17.2533L10.3333 19.7333L12.8667 19.0667ZM15.1533 10.9133C13.7145 10.9298 12.3953 11.7179 11.6989 12.977C11.0024 14.2362 11.0359 15.7724 11.7867 17L11.88 17.1533L11.48 18.6133L13 18.2L13.1467 18.2867C13.753 18.6438 14.4429 18.8347 15.1467 18.84C17.3558 18.84 19.1467 17.0491 19.1467 14.84C19.1467 12.6309 17.3558 10.84 15.1467 10.84L15.1533 10.9133ZM16.68 17.16C17.017 17.0938 17.3101 16.8879 17.4867 16.5933V16.5733C17.5462 16.4068 17.5622 16.2278 17.5333 16.0533C17.5063 16.0102 17.4531 15.9845 17.3701 15.9444C17.3506 15.935 17.3295 15.9248 17.3067 15.9133C17.1867 15.8533 16.5933 15.5667 16.4867 15.5267C16.38 15.4867 16.3 15.4667 16.22 15.5867C16.14 15.7067 15.9067 16 15.84 16.0533C15.7733 16.1067 15.7 16.1133 15.58 16.0533C15.2286 15.9116 14.9039 15.7109 14.62 15.46C14.3592 15.2179 14.1347 14.9395 13.9533 14.6333C13.8867 14.5133 13.9533 14.4467 14.0067 14.3933C14.0476 14.3524 14.0965 14.2917 14.1442 14.2325C14.1585 14.2147 14.1728 14.197 14.1867 14.18C14.2367 14.1199 14.2772 14.0525 14.3067 13.98C14.3399 13.9151 14.3399 13.8382 14.3067 13.7733C14.2898 13.743 14.2185 13.5698 14.1401 13.3791C14.0632 13.1924 13.9795 12.9889 13.9333 12.8867C13.84 12.68 13.74 12.68 13.6667 12.68H13.48C13.3574 12.6814 13.2411 12.7347 13.16 12.8267C12.8846 13.0854 12.732 13.4489 12.74 13.8267C12.7788 14.2764 12.9479 14.705 13.2267 15.06C13.7396 15.8263 14.4425 16.4465 15.2667 16.86C15.4836 16.9577 15.7062 17.0423 15.9333 17.1133C16.1747 17.1895 16.431 17.2055 16.68 17.16Z" fill="#25D366"/>
</g>
<defs>
<clipPath id="clip0_2240_1867">
<rect width="30" height="30" fill="white"/>
</clipPath>
</defs>
</svg>
